<?xml version="1.0" encoding="utf-8"?>
<!-- Generator: Adobe Illustrator 24.2.1, SVG Export Plug-In . SVG Version: 6.00 Build 0)  -->
<svg version="1.1" id="Layer_1" xmlns="http://www.w3.org/2000/svg" xmlns:xlink="http://www.w3.org/1999/xlink" x="0px" y="0px"
	 viewBox="0 0 417.1 417.1" style="enable-background:new 0 0 417.1 417.1;" xml:space="preserve">
<style type="text/css">
	.st0{fill:#6FDA44;}
	.st1{fill:#FFFFFF;}
</style>
<path class="st0" d="M66.7,5.5H351c33.7,0,60.9,27.3,60.9,60.9v284.3c0,33.7-27.3,60.9-60.9,60.9H66.7c-33.7,0-60.9-27.3-60.9-60.9
	V66.4C5.8,32.7,33,5.5,66.7,5.5z"/>
<path class="st1" d="M289.2,241c-13.5,0-26.2-5.7-37.6-15l2.8-13.2l0.1-0.5c2.5-14,10.4-37.4,34.7-37.4c18.2,0,33.1,14.8,33.1,33.1
	S307.4,241,289.2,241z M289.2,141.4c-31.1,0-55.1,20.2-65,53.4c-14.9-22.5-26.3-49.3-32.8-72h-33.5v87c0,17.2-14,31.2-31.2,31.2
	s-31.2-14-31.2-31.2v-87.1H62.1v87c0,35.6,29,64.9,64.6,64.9s64.6-29.3,64.6-64.9v-14.6c6.5,13.6,14.4,27.3,24.1,39.4l-20.5,96.3
	h34.2l14.8-69.8c13,8.3,27.9,13.6,45.1,13.6c36.7,0,66.5-30,66.5-66.7C355.6,171.3,325.8,141.4,289.2,141.4"/>
</svg>
